<svg height="512pt" viewBox="0 0 512 512" width="512pt" fill="#fff" xmlns="http://www.w3.org/2000/svg"><path d="M406.027.055l-32.605 69.254-40.395 6.023-41.738-6.066L258.164 0l-33.121 69.266-41.766 6.07-41.765-6.07L108.39 0 75.277 69.242 0 79.972l54.988 52.204-12.504 74.3 65.907-34.648 65.902 34.649-12.52-74.426 21.504-20.961 21.504 20.96-12.523 74.427 65.906-34.649 65.902 34.649-12.52-74.426 21.372-20.832 20.73 20.738-12.273 74.852 64.676-34.895 64.906 34.79-12.238-74.653 53.093-52.07-73.19-10.7zm-271.3 151.777l-26.336-13.844-26.336 13.844 5.117-30.406-21.637-20.535 29.848-4.254 13.008-27.203 12.996 27.18 29.441 4.277-21.2 20.66zm149.773 0l-26.336-13.844-26.336 13.844 5.098-30.281-21.2-20.66 29.442-4.278 12.996-27.18 12.996 27.18 29.442 4.278-21.196 20.66zm147.074-.227l-25.57-13.703L380.8 151.5l4.894-29.855-20.777-20.782 28.777-4.293 12.332-26.195 12.344 26.223 29.348 4.285-21.074 20.668zM316.016 302.316c0-33.035-26.875-59.91-59.91-59.91-33.036 0-59.91 26.875-59.91 59.91 0 33.032 26.874 59.91 59.91 59.91 33.035 0 59.91-26.878 59.91-59.91zm-59.91 29.954c-16.52 0-29.958-13.438-29.958-29.954 0-16.52 13.438-29.957 29.957-29.957 16.516 0 29.954 13.438 29.954 29.957 0 16.516-13.438 29.954-29.954 29.954zm-89.868 0c0-33.036-26.875-59.91-59.91-59.91s-59.91 26.874-59.91 59.91c0 33.035 26.875 59.91 59.91 59.91s59.91-26.875 59.91-59.91zm-59.91 29.957c-16.516 0-29.953-13.438-29.953-29.957 0-16.516 13.438-29.954 29.953-29.954 16.52 0 29.957 13.438 29.957 29.954 0 16.52-13.437 29.957-29.957 29.957zM465.79 332.27c0-33.036-26.876-59.91-59.911-59.91s-59.91 26.874-59.91 59.91c0 33.035 26.875 59.91 59.91 59.91s59.91-26.875 59.91-59.91zm-59.911 29.957c-16.516 0-29.953-13.438-29.953-29.957 0-16.516 13.437-29.954 29.953-29.954 16.52 0 29.957 13.438 29.957 29.954 0 16.52-13.438 29.957-29.957 29.957zm0 0"/><path d="M405.879 392.18c-21.875 0-43.18 6.945-60.813 19.472-18.543-29.656-51.484-49.425-88.96-49.425-37.481 0-70.422 19.77-88.961 49.425-17.637-12.527-38.942-19.472-60.817-19.472-58.36 0-105.84 47.03-105.84 104.843V512h511.23v-14.977c0-57.812-47.476-104.843-105.84-104.843zm-373.91 89.867c7.05-34.14 37.715-59.91 74.36-59.91 18.066 0 34.991 6.281 48.495 17.82a104.523 104.523 0 00-3.562 27.11v14.98zm299.023 0H181.22v-14.98c0-41.294 33.594-74.887 74.886-74.887s74.887 33.593 74.887 74.886zm29.953 0v-14.98a104.69 104.69 0 00-3.558-27.11c13.504-11.539 30.43-17.82 48.492-17.82 36.648 0 67.309 25.77 74.363 59.91zm0 0"/></svg>