<svg id="_x31__x2C_5" fill="#fff" height="512" viewBox="0 0 24 24" width="512" xmlns="http://www.w3.org/2000/svg"><path d="M22.25 24H1.75a.75.75 0 01-.75-.75v-12.5A2.752 2.752 0 013.75 8h16.5A2.752 2.752 0 0123 10.75v12.5a.75.75 0 01-.75.75zM2.5 22.5h19V10.75c0-.689-.561-1.25-1.25-1.25H3.75c-.689 0-1.25.561-1.25 1.25z"/><path d="M23.25 24H.75a.75.75 0 010-1.5h22.5a.75.75 0 010 1.5zm-16-10h-2.5a.75.75 0 010-1.5h2.5a.75.75 0 010 1.5zm6 0h-2.5a.75.75 0 010-1.5h2.5a.75.75 0 010 1.5zm6 0h-2.5a.75.75 0 010-1.5h2.5a.75.75 0 010 1.5zm-12 5h-2.5a.75.75 0 010-1.5h2.5a.75.75 0 010 1.5zm6 0h-2.5a.75.75 0 010-1.5h2.5a.75.75 0 010 1.5zm6 0h-2.5a.75.75 0 010-1.5h2.5a.75.75 0 010 1.5zm1-9.5H12.5a.75.75 0 01-.75-.75v-3.5a.75.75 0 01.75-.75h6.75c.965 0 1.75.785 1.75 1.75v2.5a.75.75 0 01-.75.75zm-7-1.5h6.25V6.25a.25.25 0 00-.25-.25h-6z"/><path d="M12.5 9.5H6.75A.75.75 0 016 8.75v-4.5a.75.75 0 01.75-.75h4.75c.965 0 1.75.785 1.75 1.75v3.5a.75.75 0 01-.75.75zM7.5 8h4.25V5.25A.25.25 0 0011.5 5h-4z"/><path d="M6.75 9.5h-3A.75.75 0 013 8.75v-8a.749.749 0 01.988-.711l3 1a.75.75 0 01.512.711v7a.75.75 0 01-.75.75zM4.5 8H6V2.291l-1.5-.5z"/></svg>