<svg id="Capa_1" fill="#fff" height="512" width="512" xmlns="http://www.w3.org/2000/svg"><path d="M298.908 228.681c-21.957-15.566-42.212-27.473-61.923-36.403a7.498 7.498 0 00-9.198 2.473c-7.839 10.978-19.952 18.355-33.233 20.243a7.501 7.501 0 00-6.426 6.9 494.664 494.664 0 00-.07 68.188 7.502 7.502 0 006.436 6.915c13.612 1.918 25.914 9.539 33.752 20.91 1.453 1.8 5.139 4.433 9.285 2.568 19.627-8.946 39.809-20.845 61.7-36.378a7.5 7.5 0 002.58-9.009c-4.545-10.944-5.325-24.867-.276-37.502 1.286-3.219.2-6.9-2.627-8.905zm-62.212 75.621c-8.833-10.417-20.792-17.796-34.032-20.998a480.19 480.19 0 01.059-54.624c12.887-3.136 24.606-10.258 33.365-20.275 15.938 7.618 31.914 17.064 49.547 29.289-3.229 10.938-3.719 24.764.251 37.443-17.51 12.148-33.375 21.556-49.19 29.165z"/><path d="M437.019 74.981C388.666 26.629 324.379 0 256 0S123.334 26.629 74.981 74.981C26.629 123.334 0 187.621 0 256s26.629 132.666 74.981 181.019C123.334 485.371 187.621 512 256 512c36.318 0 71.414-7.452 104.313-22.15 31.778-14.196 59.924-34.403 83.656-60.059a7.5 7.5 0 00-11.012-10.186C387.461 468.791 322.963 497 256 497 123.112 497 15 388.888 15 256S123.112 15 256 15s241 108.112 241 241c0 49.309-14.787 96.713-42.763 137.087a7.5 7.5 0 0012.331 8.543C496.29 358.735 512 308.376 512 256c0-68.379-26.629-132.666-74.981-181.019z"/><path d="M347.5 290.5c19.023 0 34.5-15.477 34.5-34.5s-15.477-34.5-34.5-34.5S313 236.977 313 256s15.477 34.5 34.5 34.5zm0-54c10.752 0 19.5 8.748 19.5 19.5s-8.748 19.5-19.5 19.5S328 266.752 328 256s8.748-19.5 19.5-19.5z"/><path d="M245.807 481.772c63.098 3.026 125.281-21.022 169.997-65.969C458.491 373.115 482 316.363 482 256s-23.509-117.115-66.196-159.803c-44.651-44.73-105.91-68.785-169.473-65.989a7.501 7.501 0 00-6.347 4.093 488.032 488.032 0 00-32.013 79.678 7.5 7.5 0 003.538 8.729c16.629 9.239 27.086 28.125 25.29 47.714a7.499 7.499 0 004.425 7.523c21.589 9.589 42.892 22.019 67.041 39.117a7.5 7.5 0 008.936-.198c12.562-9.768 29.693-13.059 45.943-7.842a7.5 7.5 0 004.736-14.233c-16.963-5.89-39.355-3.725-55.304 6.975-21.502-14.94-40.976-26.322-60.578-35.402.002-.121.002-.242.002-.362 0-21.356-10.58-41.209-27.975-53.166a473.45 473.45 0 0127.346-67.787c57.373-1.394 113.171 20.955 153.825 61.755C445.051 146.658 467 199.644 467 256s-21.949 109.342-61.804 149.197c-40.705 40.783-96.336 63.238-154.329 61.743a474.069 474.069 0 01-27.102-67.592c17.383-11.827 28.023-31.475 28.231-52.712 19.843-9.193 39.552-20.737 61.336-35.922 10.228 6.419 21.932 9.787 34.167 9.787 35.565 0 64.5-28.935 64.5-64.5 0-13.569-4.167-26.554-12.052-37.549a7.5 7.5 0 00-12.19 8.741C393.805 235.624 397 245.585 397 256c0 27.294-22.206 49.5-49.5 49.5-10.816 0-21.091-3.428-29.711-9.913a7.502 7.502 0 00-8.851-.122c-24.371 17.303-45.863 29.871-67.636 39.552a7.499 7.499 0 00-4.433 7.402c1.584 18.401-8.83 38.037-25.589 47.006a7.5 7.5 0 00-3.573 8.734 488.795 488.795 0 0031.749 79.503 7.5 7.5 0 006.351 4.11z"/><path d="M153 346c0 19.023 15.477 34.5 34.5 34.5S222 365.023 222 346s-15.477-34.5-34.5-34.5S153 326.977 153 346zm54 0c0 10.752-8.748 19.5-19.5 19.5S168 356.752 168 346s8.748-19.5 19.5-19.5S207 335.248 207 346zm-19.5-214.385c-19.023 0-34.5 15.477-34.5 34.5s15.477 34.5 34.5 34.5 34.5-15.477 34.5-34.5-15.477-34.5-34.5-34.5zm0 54c-10.752 0-19.5-8.748-19.5-19.5s8.748-19.5 19.5-19.5 19.5 8.748 19.5 19.5-8.748 19.5-19.5 19.5zm-52.939-33.285h-.047l-66.521-.42a7.5 7.5 0 01-6.395-11.34c9.572-16.058 21.213-30.987 34.599-44.373A230.488 230.488 0 01114.29 79.92a7.499 7.499 0 0110.547 1.121 7.498 7.498 0 01-1.121 10.547 215.634 215.634 0 00-16.911 15.216 213.839 213.839 0 00-25.114 30.193l48.031.303a64.465 64.465 0 0150.581-35.4 523.747 523.747 0 0117.927-48.941 208.041 208.041 0 00-46.38 19.43 7.5 7.5 0 01-7.423-13.035 223.208 223.208 0 0165.295-24.638 7.499 7.499 0 018.335 10.477 507.239 507.239 0 00-24.901 65.981 7.5 7.5 0 01-6.984 5.343 49.48 49.48 0 00-44.646 31.101 7.507 7.507 0 01-6.965 4.712zm-3.57 193.68h-.082l-24.103-.26a7.5 7.5 0 01.079-15h.083l17.805.192c4.341-18.09 16.42-33.566 32.984-42.184-1.314-20.68-1.385-43.468.061-65.488-16.234-8.438-28.24-23.546-32.794-41.204l-67.046.736C49.363 206.12 45 230.717 45 256c0 25.646 4.493 50.592 13.361 74.225l13.607.147a7.5 7.5 0 01-.079 15l-18.761-.202a7.5 7.5 0 01-6.876-4.699C35.468 313.681 30 285.261 30 256c0-28.882 5.325-56.944 15.829-83.407a7.499 7.499 0 016.889-4.733l78.33-.86h.083a7.5 7.5 0 017.417 6.392c2.544 17.033 14.034 31.724 29.985 38.34a7.498 7.498 0 014.605 7.492c-1.773 23.411-1.894 48.919-.069 73.597a7.5 7.5 0 01-4.597 7.473c-16.252 6.766-27.765 21.783-30.046 39.19a7.5 7.5 0 01-7.435 6.526zm79.739 131.32c-42.739-6.896-83.245-30.248-114.534-61.527-13.086-13.086-24.511-27.657-33.957-43.308a7.499 7.499 0 011.895-9.855 7.47 7.47 0 015.295-1.48c4.05.121 42.036-.25 65.445-.519h.087a7.5 7.5 0 016.909 4.583c7.499 17.77 24.784 29.643 44.036 30.25a7.5 7.5 0 016.952 5.356 508.369 508.369 0 0024.694 65.885 7.5 7.5 0 01-.965 7.799c-1.439 1.801-3.657 3.113-5.857 2.816zM82.479 376.144a213.909 213.909 0 0024.325 29.053c25.552 25.552 56.751 43.934 90.942 53.702a525.123 525.123 0 01-17.764-48.838c-21.174-2.487-39.907-15.419-49.753-34.367-10.279.115-34.088.364-47.75.45z"/></svg>